<svg width="189" height="180" viewBox="0 0 189 180" fill="none" xmlns="http://www.w3.org/2000/svg">
<g filter="url(#filter0_d)">
<path d="M87.7024 6.45054C90.378 0.649957 98.622 0.649948 101.298 6.45053L121.521 50.2958C122.612 52.6598 124.852 54.2876 127.438 54.5941L175.386 60.2792C181.73 61.0313 184.277 68.8719 179.588 73.209L144.138 105.992C142.226 107.76 141.371 110.393 141.878 112.947L151.288 160.306C152.533 166.571 145.863 171.417 140.289 168.297L98.1564 144.712C95.8847 143.441 93.1154 143.441 90.8436 144.712L48.7106 168.297C43.1365 171.417 36.4669 166.571 37.7118 160.306L47.122 112.947C47.6294 110.393 46.7736 107.76 44.8622 105.992L9.41243 73.209C4.72254 68.8719 7.2701 61.0313 13.6136 60.2792L61.5624 54.5941C64.1477 54.2876 66.3881 52.6598 67.4786 50.2958L87.7024 6.45054Z" fill="#FFE900"/>
<path d="M87.7024 6.45054C90.378 0.649957 98.622 0.649948 101.298 6.45053L121.521 50.2958C122.612 52.6598 124.852 54.2876 127.438 54.5941L175.386 60.2792C181.73 61.0313 184.277 68.8719 179.588 73.209L144.138 105.992C142.226 107.76 141.371 110.393 141.878 112.947L151.288 160.306C152.533 166.571 145.863 171.417 140.289 168.297L98.1564 144.712C95.8847 143.441 93.1154 143.441 90.8436 144.712L48.7106 168.297C43.1365 171.417 36.4669 166.571 37.7118 160.306L47.122 112.947C47.6294 110.393 46.7736 107.76 44.8622 105.992L9.41243 73.209C4.72254 68.8719 7.2701 61.0313 13.6136 60.2792L61.5624 54.5941C64.1477 54.2876 66.3881 52.6598 67.4786 50.2958L87.7024 6.45054Z" stroke="black" stroke-width="4" stroke-linecap="round"/>
</g>
<defs>
<filter id="filter0_d" x="0.997559" y="0.100098" width="187.005" height="179.175" filterUnits="userSpaceOnUse" color-interpolation-filters="sRGB">
<feFlood flood-opacity="0" result="BackgroundImageFix"/>
<feColorMatrix in="SourceAlpha" type="matrix" values="0 0 0 0 0 0 0 0 0 0 0 0 0 0 0 0 0 0 127 0"/>
<feOffset dy="4"/>
<feGaussianBlur stdDeviation="2"/>
<feColorMatrix type="matrix" values="0 0 0 0 0 0 0 0 0 0 0 0 0 0 0 0 0 0 0.25 0"/>
<feBlend mode="normal" in2="BackgroundImageFix" result="effect1_dropShadow"/>
<feBlend mode="normal" in="SourceGraphic" in2="effect1_dropShadow" result="shape"/>
</filter>
</defs>
</svg>
