<svg width="75" height="77" viewBox="0 0 75 77" fill="none" xmlns="http://www.w3.org/2000/svg">
<path d="M45.6389 8.66193L42.7655 4.76769C40.15 1.22298 34.85 1.22299 32.2345 4.7677L29.3611 8.66193C28.715 9.53757 27.5835 9.90524 26.5461 9.57659L21.9325 8.11501C17.733 6.78461 13.4452 9.89991 13.4128 14.305L13.3771 19.1444C13.3691 20.2326 12.6698 21.1951 11.6374 21.539L7.0458 23.0684C2.86635 24.4604 1.22855 29.5011 3.79155 33.0839L6.60726 37.02C7.2404 37.9051 7.2404 39.0949 6.60726 39.98L3.79154 43.9161C1.22854 47.4989 2.86636 52.5396 7.0458 53.9316L11.6374 55.461C12.6698 55.8049 13.3691 56.7674 13.3771 57.8556L13.4128 62.695C13.4452 67.1001 17.733 70.2154 21.9325 68.885L26.5461 67.4234C27.5835 67.0948 28.715 67.4624 29.3611 68.3381L32.2345 72.2323C34.85 75.777 40.15 75.777 42.7655 72.2323L45.6389 68.3381C46.285 67.4624 47.4165 67.0948 48.4539 67.4234L53.0675 68.885C57.267 70.2154 61.5548 67.1001 61.5872 62.695L61.6229 57.8556C61.6309 56.7674 62.3302 55.8049 63.3626 55.461L67.9542 53.9316C72.1337 52.5396 73.7715 47.4989 71.2085 43.9161L68.3927 39.98C67.7596 39.0949 67.7596 37.9051 68.3927 37.02L71.2085 33.0839C73.7715 29.5011 72.1336 24.4604 67.9542 23.0684L63.3626 21.539C62.3302 21.1951 61.6309 20.2326 61.6229 19.1444L61.5872 14.305C61.5548 9.8999 57.267 6.78462 53.0675 8.11501L48.4539 9.57659C47.4165 9.90524 46.285 9.53757 45.6389 8.66193Z" fill="#FFE900" stroke="black" stroke-width="4"/>
</svg>
